<?xml version="1.0" encoding="UTF-8"?>
<svg
  width="32"
  height="32"
  viewBox="0 0 32 32"
  xmlns="http://www.w3.org/2000/svg"
>
  <!-- Dark theme icon: Crescent moon with stars -->

  <defs>
    <radialGradient id="moonGlow" cx="50%" cy="50%" r="60%">
      <stop offset="0%" style="stop-color: #e6e6fa; stop-opacity: 0.6" />
      <stop offset="70%" style="stop-color: #b0c4de; stop-opacity: 0.3" />
      <stop offset="100%" style="stop-color: #4682b4; stop-opacity: 0" />
    </radialGradient>
    <filter id="softGlow">
      <feGaussianBlur stdDeviation="0.8" result="coloredBlur" />
      <feMerge>
        <feMergeNode in="coloredBlur" />
        <feMergeNode in="SourceGraphic" />
      </feMerge>
    </filter>
  </defs>

  <!-- Night sky background -->
  <circle cx="16" cy="16" r="15" fill="#1e1e2e" opacity="0.8" />

  <!-- Moon crescent -->
  <g filter="url(#softGlow)">
    <!-- Full moon -->
    <circle cx="16" cy="16" r="9" fill="#E6E6FA" />
    <!-- Shadow to create crescent -->
    <circle cx="19" cy="14" r="9" fill="#1e1e2e" />
  </g>

  <!-- Moon surface details -->
  <g opacity="0.3">
    <circle cx="14" cy="13" r="1.5" fill="#B0C4DE" />
    <circle cx="12" cy="18" r="1" fill="#B0C4DE" />
    <circle cx="15" cy="20" r="0.8" fill="#B0C4DE" />
  </g>

  <!-- Stars -->
  <g fill="#FFD700" opacity="0.9">
    <!-- Large star top-right -->
    <g transform="translate(24,8)">
      <polygon points="0,-2 0.6,-0.6 2,0 0.6,0.6 0,2 -0.6,0.6 -2,0 -0.6,-0.6" />
    </g>
    <!-- Medium star bottom-left -->
    <g transform="translate(6,24)">
      <polygon
        points="0,-1.5 0.4,-0.4 1.5,0 0.4,0.4 0,1.5 -0.4,0.4 -1.5,0 -0.4,-0.4"
      />
    </g>
    <!-- Small stars -->
    <circle cx="8" cy="10" r="0.8" />
    <circle cx="26" cy="20" r="0.6" />
    <circle cx="4" cy="16" r="0.5" />
    <circle cx="28" cy="12" r="0.4" />
  </g>

  <!-- Toggle indicator - small highlight to show interactivity -->
  <circle cx="13" cy="15" r="1.5" fill="#FFFFFF" opacity="0.4" />
</svg>
